<svg width="1200" height="700" viewBox="0 0 1200 700" fill="none" xmlns="http://www.w3.org/2000/svg">
  <defs>
    <linearGradient id="bg" x1="0" y1="0" x2="1200" y2="700" gradientUnits="userSpaceOnUse">
      <stop stop-color="#101413"/>
      <stop offset="1" stop-color="#16211a"/>
    </linearGradient>
    <linearGradient id="panel" x1="0" y1="0" x2="0" y2="1">
      <stop offset="0" stop-color="rgba(255,255,255,0.13)"/>
      <stop offset="1" stop-color="rgba(255,255,255,0.04)"/>
    </linearGradient>
    <linearGradient id="hero" x1="0" y1="0" x2="1" y2="1">
      <stop stop-color="#7dd87d" stop-opacity="0.85"/>
      <stop offset="1" stop-color="#78dce8" stop-opacity="0.6"/>
    </linearGradient>
  </defs>
  <rect width="1200" height="700" rx="32" fill="url(#bg)"/>
  <rect x="42" y="42" width="1116" height="616" rx="28" fill="rgba(255,255,255,0.04)" stroke="rgba(255,255,255,0.08)"/>
  <rect x="76" y="76" width="1048" height="64" rx="18" fill="rgba(255,255,255,0.08)"/>
  <circle cx="120" cy="108" r="18" fill="#7dd87d"/>
  <rect x="160" y="88" width="180" height="34" rx="12" fill="rgba(255,255,255,0.15)"/>
  <rect x="400" y="88" width="216" height="34" rx="12" fill="rgba(255,255,255,0.1)"/>
  <rect x="644" y="88" width="196" height="34" rx="12" fill="rgba(255,255,255,0.1)"/>
  <rect x="876" y="88" width="196" height="34" rx="12" fill="rgba(255,255,255,0.1)"/>
  <rect x="76" y="156" width="616" height="380" rx="28" fill="url(#hero)" opacity="0.18"/>
  <rect x="76" y="156" width="616" height="380" rx="28" fill="rgba(0,0,0,0.18)" stroke="rgba(255,255,255,0.08)"/>
  <rect x="112" y="194" width="192" height="28" rx="12" fill="rgba(255,255,255,0.16)"/>
  <rect x="112" y="238" width="420" height="22" rx="10" fill="rgba(255,255,255,0.08)"/>
  <rect x="112" y="272" width="380" height="18" rx="9" fill="rgba(255,255,255,0.06)"/>
  <rect x="112" y="306" width="128" height="64" rx="20" fill="rgba(125,216,125,0.16)"/>
  <rect x="252" y="306" width="128" height="64" rx="20" fill="rgba(120,220,232,0.14)"/>
  <rect x="392" y="306" width="128" height="64" rx="20" fill="rgba(246,199,104,0.14)"/>
  <rect x="112" y="394" width="260" height="112" rx="22" fill="rgba(255,255,255,0.08)"/>
  <rect x="112" y="520" width="160" height="32" rx="16" fill="rgba(255,255,255,0.12)"/>
  <rect x="76" y="560" width="616" height="24" rx="12" fill="rgba(255,255,255,0.05)"/>
  <rect x="706" y="156" width="414" height="202" rx="26" fill="rgba(255,255,255,0.06)" stroke="rgba(255,255,255,0.08)"/>
  <rect x="730" y="182" width="132" height="22" rx="11" fill="rgba(255,255,255,0.16)"/>
  <rect x="730" y="218" width="328" height="18" rx="9" fill="rgba(255,255,255,0.08)"/>
  <rect x="730" y="252" width="164" height="18" rx="9" fill="rgba(255,255,255,0.08)"/>
  <rect x="730" y="294" width="92" height="92" rx="20" fill="rgba(125,216,125,0.16)"/>
  <rect x="842" y="294" width="92" height="92" rx="20" fill="rgba(120,220,232,0.16)"/>
  <rect x="954" y="294" width="92" height="92" rx="20" fill="rgba(255,255,255,0.08)"/>
  <rect x="706" y="376" width="414" height="160" rx="26" fill="rgba(255,255,255,0.06)" stroke="rgba(255,255,255,0.08)"/>
  <rect x="730" y="402" width="220" height="18" rx="9" fill="rgba(255,255,255,0.08)"/>
  <rect x="730" y="438" width="164" height="18" rx="9" fill="rgba(255,255,255,0.08)"/>
  <rect x="730" y="474" width="364" height="18" rx="9" fill="rgba(255,255,255,0.08)"/>
  <rect x="730" y="516" width="118" height="18" rx="9" fill="rgba(125,216,125,0.2)"/>
  <rect x="858" y="516" width="164" height="18" rx="9" fill="rgba(255,255,255,0.08)"/>
  <rect x="76" y="560" width="616" height="24" rx="12" fill="rgba(255,255,255,0.04)"/>
  <circle cx="184" cy="520" r="14" fill="rgba(125,216,125,0.75)"/>
  <circle cx="224" cy="520" r="8" fill="rgba(255,255,255,0.9)"/>
  <circle cx="864" cy="120" r="10" fill="#7dd87d"/>
  <circle cx="918" cy="112" r="8" fill="#78dce8"/>
  <circle cx="980" cy="128" r="6" fill="#f6c768"/>
  <path d="M342 308C360 280 410 304 416 328C422 352 390 360 370 340" stroke="#f4f7ef" stroke-width="4" stroke-linecap="round" opacity="0.8"/>
  <rect x="76" y="378" width="148" height="22" rx="11" fill="rgba(255,255,255,0.12)"/>
  <rect x="242" y="378" width="136" height="22" rx="11" fill="rgba(255,255,255,0.12)"/>
  <rect x="76" y="416" width="428" height="18" rx="9" fill="rgba(255,255,255,0.07)"/>
  <rect x="76" y="448" width="340" height="18" rx="9" fill="rgba(255,255,255,0.07)"/>
  <rect x="76" y="480" width="196" height="18" rx="9" fill="rgba(255,255,255,0.07)"/>
  <rect x="76" y="520" width="368" height="18" rx="9" fill="rgba(255,255,255,0.07)"/>
  <circle cx="740" cy="634" r="12" fill="#7dd87d"/>
  <circle cx="780" cy="634" r="10" fill="#78dce8"/>
  <circle cx="820" cy="634" r="8" fill="#f6c768"/>
</svg>
